<?xml version="1.0" encoding="utf-8"?>
<!-- Generator: Adobe Illustrator 28.1.0, SVG Export Plug-In . SVG Version: 6.00 Build 0)  -->
<svg version="1.1" id="Layer_1" xmlns="http://www.w3.org/2000/svg" xmlns:xlink="http://www.w3.org/1999/xlink" x="0px" y="0px"
	 viewBox="0 0 1920 1080" style="enable-background:new 0 0 1920 1080;" xml:space="preserve">
<style type="text/css">
	.st0{fill:#FFFFFF;}
	.st1{fill:#A4A4A4;}
	.st2{fill:none;stroke:#000000;stroke-miterlimit:10;}
	.st3{fill:none;stroke:#000000;stroke-miterlimit:10;stroke-dasharray:6.0143,6.0143;}
	.st4{fill:none;stroke:#000000;stroke-miterlimit:10;stroke-dasharray:6.0129,6.0129;}
	.st5{fill:none;stroke:#020202;stroke-width:6.8629;stroke-linecap:round;stroke-linejoin:round;}
	.st6{fill:#FFFFFF;stroke:#000000;stroke-width:6.0475;}
	.st7{fill:#231F20;}
	.st8{fill:#FF00DA;}
	.st9{fill:none;stroke:#000000;stroke-width:6.0475;}
	.st10{fill:none;stroke:#FFFFFF;stroke-width:11.35;stroke-miterlimit:10;}
	.st11{fill:none;stroke:#FFFFFF;stroke-width:11.035;stroke-linecap:round;stroke-linejoin:round;}
</style>
<path class="st11" d="M270.4,304.6c-14.2,64.6-64.6,109-116.4,118.7c-34.7,6.5-68.4-3.2-68.4-32.6c0-11.3,3.9-34.3,37.4-44.1
	c24.3-7.1,55.2,1.4,79.6,35.3s39.4,105,30.9,141.1c-7.1,30.3-26.5,46.1-50.8,44c-26.5-2.3-29.6-42.9-7-66
	c16.6-17,43.7-24.9,68.4-25.8c156.1-5.5,186.6,118.9,366.1,138.1c177.4,19,196.9-71.8,276.7-55.3c35.6,7.3,44.3,47.5,22,70
	c-22.9,23.1-81.7,25.7-99.8-1.3c-19.7-29.4,3-71.6,33.6-89.4c45.3-26.4,108.8-31.6,161.6-11.5c165.5,63.2,119.4,366.4,329.2,411.7
	c67.8,14.7,176.5-19.1,156.5-130.3c-8.5-47-57.7-62.2-86.1-34.4c-25.1,24.5-24.8,69.3-3,96.8c23,28.9,63.4,36.8,100.4,38.4
	c31.3,1.4,62.7-0.3,93.7-5.1c15-2.3,30.3-5.5,42.9-13.9"/>
</svg>
