<?xml version="1.0" encoding="utf-8"?>
<!-- Generator: Adobe Illustrator 28.1.0, SVG Export Plug-In . SVG Version: 6.00 Build 0)  -->
<svg version="1.1" id="Layer_1" xmlns="http://www.w3.org/2000/svg" xmlns:xlink="http://www.w3.org/1999/xlink" x="0px" y="0px"
	 viewBox="0 0 319.9 338.7" style="enable-background:new 0 0 319.9 338.7;" xml:space="preserve">
<style type="text/css">
	.st0{fill:#FFFFFF;}
	.st1{fill:#A4A4A4;}
	.st2{fill:none;stroke:#000000;stroke-miterlimit:10;}
	.st3{fill:none;stroke:#000000;stroke-miterlimit:10;stroke-dasharray:6.0143,6.0143;}
	.st4{fill:none;stroke:#000000;stroke-miterlimit:10;stroke-dasharray:6.0129,6.0129;}
	.st5{fill:none;stroke:#020202;stroke-width:6.8629;stroke-linecap:round;stroke-linejoin:round;}
	.st6{fill:#FFFFFF;stroke:#000000;stroke-width:6.0475;}
	.st7{fill:#231F20;}
	.st8{fill:#FF00DA;}
	.st9{fill:none;stroke:#000000;stroke-width:6.0475;}
	.st10{fill:none;stroke:#FFFFFF;stroke-width:11.35;stroke-miterlimit:10;}
	.st11{fill:none;stroke:#FFFFFF;stroke-width:11.035;stroke-linecap:round;stroke-linejoin:round;}
</style>
<g>
	<g>
		<path class="st0" d="M93.5,184.1c3.6-2.6,8-1.6,11.9-3c1.1-0.4,3-0.2,2.6-1.9c-0.4-1.8-2-0.6-3.1-0.4c-2.6,0.4-5.2,0.7-7.8,1.1
			c-0.6,0.1-1.7-0.1-1.6-0.4c2.6-4.5-1.8-2.5-3-3.1c-1.9-0.9-3.8-2.2-6.1-2.2c-0.8,0-1.9,0.2-1.9,1c-0.1,3.5-2.3,4.1-5.2,4.6
			c-1.3,0.2-1.8,2.9-4.1,1.4c-2.8-1.9-6.4-3.4-7.4-6.6c-1.4-4.6-2.9-9.5-2.6-14.4c1.9-0.8,1.7,1.5,3.1,1.7c0.1-0.4,0.3-0.8,0.3-1.1
			c-0.1-1.4-0.1-2.8-0.5-4.1c-0.7-2.2-1.5-5.2-4.1-5c-2.8,0.3-1.7,3.4-2,5.4c-0.6,4.9,1,9.9-0.3,14.8c-0.3,1.1-0.4,2.4-1.8,2.2
			c-1.8-0.2-0.8-1.5-0.8-2.5c0-1.6,0-4-2.1-3.9c-1.7,0.1-1.5,2.3-1.7,3.8c-0.2,1.1,1,2.4-0.5,3.6c-1.6-2.2-2.5-4.4-1.8-7.2
			c0.8-3.1,1.7-6.3,0.7-9.6c-0.2-0.8-0.9-2.7,1.6-2.1c1.3,0.3,1.2-1,1.1-2c-0.2-2.3,1.1-4.7,0.9-6.8c-0.4-4.1,2.5-7.7,1.1-11.8
			c-0.4-1.2,0.1-2.1,0.9-2.9c7.3-6.7,6.1-15.7,6.9-24.6c1.4,1.7,3.8,1.9,3.1-0.6c-1.3-5.5,3-8.5,4.5-12.6c1-2.7,1.8-5.1,1.3-8.1
			c-0.1-0.8-2.3-4.7,2.1-2.6c0.6,0.3,0.7-0.7,0.8-1.4c0.6-3.4,0.6-3.3,2.6-6.2c0.7-1.1,0.3-2.4,0.2-3.6c-0.1-0.9,0.1-1.8,0.2-2.7
			c1.5,0.2,0.7,2.3,2.2,2c1.4-0.3,1.3-1.6,1.4-2.6c0.6-3.7,3.4-7,2.1-11.2c-0.2-0.8,0.6-0.8,1.2-1.1c3.7-2.3,7.8-4.5,6.9-10
			c-0.2-1.5,0.6-2.5,1.5-3.7c3.4-4.1,5.7-9.1,10.4-12.1c2.4-1.5-0.3-4.6,2.3-6.9c3.5-3.1,7.1-6.4,10.5-9.7c3.5-3.3,6.2-7.3,9.9-10.6
			c3-2.6,4.8-2.1,7.7,0c-3,2.5-6.9,1.4-9.6,3.8c-1,0.9-2.9,1.4-2.2,3c0.5,1.3,2.2,0.7,3.4,0.5c3.6-0.8,6.7,2.2,10.4,0.5
			c0,2-1.4,1.7-2.2,2.2c-1.1,0.7-3.1,0.3-3.2,2.2c-0.1,2,2.7,0.2,3,2.3c-6.1,2.3-12.9,0.7-19.9,2.4c1.2,1,1.6,1.5,2.1,1.7
			c1.4,0.6,3.2,0.7,2.9,2.9c-0.3,2.4-2.4,2.5-3.9,2.3c-4-0.3-3.8,2.2-3.5,4.8c0.1,0.9,0.5,1.6,1.5,1.4c2.5-0.8,3.1-0.4,2.1,2.2
			c-0.4,1.2,1,1.4,1.9,1c1-0.4,1.7-1.2,2.7-1.8c1.2-0.7,2.5-1.8,3.8-0.4c1.4,1.5-1.7,1.6-1.1,3.1c2.8,0.3,5.3-0.4,7.6-2.2
			c1.2-1,2.6-1.6,4-2.2c1-0.4,2.2-1,3.1-0.3c1.4,1.1-1.9,1.6-0.4,3.2c4-1.8,8.4-1.3,12.9-1.5c-0.4,2.7-2.9,1.7-4.2,3
			c2.2,1,3.9-0.6,5.8-0.7c3.7-0.3,7.4-2.2,10.7,1.7c1.3,1.6,4.1,1.1,6.3,1.1c-3.7-1.7-4.2-6.9-9.2-7c0.2-0.6,0.5-1.1,0.7-1.7
			c3.2,0.7,6.5,1.6,9.7,2.2c4.6,0.8,9.4,3.1,12.6,5.3c3.5,2.4,8.6,1.7,11,6c0.9,1.6,3.8,1.4,5.8,2.5c5,2.9,8.8,7.6,14.5,9.3
			c1.2,0.4,2.3,2.3,3.7,1c0.9-0.8,0.2-2.4-0.1-3.5c-0.2-1-1-1.9-0.4-3.2c0.5,0.1,1.2,0,1.3,0.2c3.1,6,9.5,10.1,10.6,17.3
			c0.8,5,5,6.6,9,8.6c-1.9-3.9-4-7.8-5.8-11.8c-5.3-12.1-14-21.5-23.4-30.4c-1.7-1.6-6.6-3-2.2-7.4c0.9-0.9-2.5-3.2-4.3-4
			c-4.1-1.7-6.7-5.2-10.6-8c2.7-0.4,4.8-0.7,8-1.1c-6.2-5.2-11.9-8.7-20-7.1c0.9-3,2.5-3.1,4.2-2.7c1.4,0.3,3.2,0.8,3.4-1
			c0.2-2-2.1-1.2-3.2-1.5c-2.1-0.5-4.2-0.8-6.7-1.3c4.7-2.5,7.2-1.8,16.3,1.8c5.3,2.1,9,6.9,14.8,7.9c0.2,1.6-1.8,0.8-2.2,2.1
			c3.1,0.9,4.1,5,8.8,4.5c2.3-0.2,3.8,5.4,7.8,5.5c0.1,0,0.3,0.3,0.3,0.3c-3.8,6.9,5.1,2.3,5,6c-0.7,1.4-2.5-0.5-3.7,0.8
			c2.1,3.5,6.1,1.4,9.2,3.3c-1.4,0.6-2.6,1.1-3.7,1.5c-1.8,0.6-2.8,3-2.3,3.5c3.1,3.2,1.7,8.7,6,11.2c1.9,1.1,3.6,2.5,2.2,5.3
			c-0.3,0.5-0.1,1.7,0.4,2.2c4.9,5.7,4,13.5,7,19.7c1.9,4,0.6,9,4.7,12.2c2.5,2-2.5,1.4-1.5,3.4c0.5,1,3.7,4-1.4,3
			c-0.7-0.2-0.6,1.3-0.2,1.9c0.6,1.1,1.4,2,2.1,3c0.6,0.9,1.3,1.9,0.9,3c-2,4.4-2,4.4,0.8,9.3c0.8,1.3,1.7,2.6,0.6,4.5
			c-2.8-1.3-1.9-5.3-5.3-6.6c1.5,5.4,2.9,10.4,4.3,15.4c-0.2,0.1-0.3,0.1-0.5,0.2c-0.8-1.3-1.6-2.5-2.6-4c-3,4.8,2.6,8.7,1.5,13.2
			c-2.2-0.2-0.8-2.7-2.5-3.1c-4.6,8.8-2.2,17.4,2.1,26c-2.3-0.2-2-1.5-2.6-2.1c-0.5-0.6-0.9-1.4-1.8-1.1c-1.1,0.5-0.9,1.5-0.6,2.4
			c0.6,1.6,1.6,3.1,1.2,4.9c-0.2,0.8,0.8,4.5-2.1,1.2c-1-1.1-1.2,0.3-1.3,0.9c-0.2,0.7-0.2,1.6,0,2.3c0.6,2.6,0.5,6.9,3.1,7.1
			c2.7,0.2,2.2-4.1,3.1-6.5c4.9-13.2,2.9-27.5,6.3-41c4.8-18.6,1.4-36.5-4.3-54.4c-2.6-8.2-4-16.8-8.4-24.3
			c-0.5-0.9-1.1-2.2,0.4-2.7c1.2-0.5,2.5-0.4,3.4,0.8c3.9,5.3,8,10.2,10.1,16.8c1.5,4.8,4.9,9.1,7.7,13.5c3.6,5.8,6.9,11.9,7.9,18.7
			c0.9,6.4,4,12.2,3.9,18.9c-0.2,7.3,2.7,14.4,2.4,21.9c-0.1,2.5,0.2,5,1.2,7.3c0.7,1.7,0.8,3.5,0.1,5c-1.7,3.2-1.8,6.3-0.3,9.6
			c0.5,1.1,0.7,2.6-0.9,3.7c-1.9,1.2-0.4,2.8-0.1,4.1c0.2,0.6,0.7,1.2,1.4,1c1.8-0.6,1.2-2.2,1.3-3.5c0.5-12.1,2.2-24.1,0.6-36.3
			c-0.6-4.6-2.4-8.9-2.6-13.6c-0.4-11.4-5.7-21.8-7.2-32.9c-0.8-5.6-5.8-8.2-8-12.8c-5.3-11-11.4-21.5-18.7-31.2
			c-4.4-5.9-8-12.5-14.3-16.8c-1.2-0.8-1.8-2.6-3.4-4.9c5.5,1.3,8.3,4.6,11.1,7.3c12.4,11.9,23,25.2,29.2,41.6
			c2.3,6.1,5.8,11.8,9.1,17.5c7.9,13.8,8.5,29.3,9.7,44.3c0.8,10.8,1.2,21.8,0.6,32.8c-0.3,5.5,0.5,11,1.2,16.5
			c0.4,3.2,2.9,4.7,6,4.7c2.8,0,3.8-2.3,4.2-4.7c0.2-1.4,1.3-3-1.7-1.9c-1.4,0.5,0.6-2.4-1.3-2.6c-1.8,1.6,0.1,4.7-2.8,6.2
			c-2.4-5.9-2.2-12.1-2.8-18.1c-0.2-2.3,0.1-4.6,0.2-7c0.1-1.2-0.4-2.8,1.3-3c1.6-0.3,2.6,1,3.1,2.3c1.6,4.4,3.6,8.8,4.5,13.4
			c1.1,5.4,3.5,10.4,4.1,15.9c0.1,1,0.4,5.6,4.3,2.5c1-0.8,1.8,0.8,2.2,1.8c0.7,1.9-0.1,3.5-0.5,5c-2.3,0.2-2-2.8-4.2-2.3
			c0.4,4.6,0.6,9.2,1.3,13.8c1.3,8.7-0.2,17.2-1.2,25.8c-0.2,1.9,0.5,6.2-4.5,3.7c-2.3-1.1-2.4,1.5-2.2,3.2
			c0.5,5.3,0.2,10.5-1.1,15.7c-1,3.9,0.5,8.7-2.3,11.9c-5.6,6.5-9.9,13.9-15.2,20.5c-0.7,0.9-2,1.5-3,2.1c-1,0.6-2,1-2.9-0.1
			c-0.8-0.9-0.1-1.6,0.1-2.5c0.8-2.7,3.4-4.8,2.6-8.8c-2.8,5-6.1,8.7-8,13.5c-1.4,3.5-5.6,5.4-8.1,8.5c-2.5,3.1-8.4,9-9.1,9.6
			c-4.2,3.5-9,5.7-14.3,7.2c-5.1,1.4-7.3,6.9-11.9,9c-5.1,2.4-8.8,6.9-14.6,8.3c-1.7,0.4-2.8,2.7-4.4,3.9c-4.6,3.5-9.6,5.3-15.6,5.9
			c-20.2,2.2-40.1-0.1-60-2.9c-3.4-0.5-6.4-2.1-9.4-3.5c0.2-1.2,0.9-0.8,1.4-0.8c1.1,0,2.3,0.4,2.8-0.9c0.1-0.3-0.1-0.9-0.4-1.2
			c-1-0.9-2-0.1-3,0.2c-1.6,0.5-3.1,0.9-4.9,1.4c0-0.7,0-1.1,0.1-1.3c4.8-6.8,4.2-9.3-3.4-13.7c-1.6-0.9-3.5-1.3-5.2-1.9l0.1,0.1
			c-0.7-3.4-1.9-6.2-5-8.4c-3.7-2.6-6-6.2-8.4-10.1c-5.5-9-8.1-19.1-12.7-28.3c-4.7-9.3-7.2-19.5-11.9-28.7
			c-1.4-2.8-4.1-4.8-6.1-6.5c-4.1-3.7-3.8-8.3-4.7-12.4c-1-4.7-2.4-8.9-5.5-12.5c-0.8-1-1.6-2.3-0.5-3.3c1-0.9,2,0.4,2.8,0.9
			c2.5,1.7,5.3,2.9,6.4,6.3c0.9,2.7,4.2,2.9,6.8,4.6c-2.4,0.7-4.7,2-1.5,3.7c5.3,2.8,6.7,8.8,11.2,12.4c2.4,1.9,5,2.2,7.4,3
			c2.1,0.7,1.5-1.6,0.9-2.8c-2.3-4.8-5.3-9.2-9.1-13c-0.6-0.6-1-1.5-1.5-2.2l-0.1,0.1c3.5-0.1,6.9,0.6,10.3-1.4
			c1.1-0.6,3.9-1,5.7,0.5c0.9,0.7,2.3,0.8,3.1,0.2c2.9-2.2,5.8-3.2,9.8-3.4c3.9-0.2,8.8-3.5,11.9-1c4.8,3.8,7.3-2.7,11.1-1
			c0.8,0.4,1.7,0.8,2.6,1c3,0.8,6,1.8,9.1,0.7c0.8-0.3,2.1-0.1,2.1-1.3c0-1.1-1-1.5-2-1.6c-6.3-1-9.8-5.6-13.7-10
			c-3.8-4.2-7.5-8.7-12.3-11.9c-0.9-0.6-1.9-1.4-2.9-0.4c-0.8,0.8,0.1,1.7,0.4,2.5c1.6,3.9,6.7,5.3,7.3,10c0,0.2,0.5,0.3,0.8,0.5
			c3,2.2,6,4.5,9.2,6.9c-3,1.7-4.9-2.7-6.4-1.4c-3.8,3.2-7.4,2.8-11.5,1.2c-0.6-0.2-1.6,0.2-2.2,0.6c-3.5,2.5-5.8,0.5-7.8-2.1
			c-3.1-4.1-5.7-8.5-8.9-12.4c-1.9-2.3-1.9-3.1,0.9-4.1c1.8-0.6,3.9-1.4,1.3-3.7L93.5,184.1z M119.2,131.7
			c-6.6,2.8-10.7,9.1-17.7,11.8c2.6,2.1,3.4-0.2,4.8-0.8c1.8-0.8,3.4-2.1,5.6-1.6c-1.7,3.2,2.3,3.6,2.6,5.4c0.3,2,0.9,3.1,2.6,2.8
			c1.9-0.3,4.5-1,4.9-2.9c0.5-2.3-1.8-1-3-1.2c-0.2,0-0.5-0.8-0.4-1.1c1.3-2.5-1-3.4-2.2-4.4c-2.3-2.1-1.9-3.2,0.8-4
			C119.4,135.1,120.2,133.9,119.2,131.7c-0.4-3.4-6.6-4.1-4.1-8.9c0.2-0.4-1.5-0.8-2.3-1.1c-3.9-1.4-7.8,0-12.6-0.3
			c2.3,2,5.2,2.2,5.1,5.3c-2.6,0.5-5.3,1-7.3,3.4c3.1,1.4,5.8-2.1,8.8-0.6c-0.4,0.6-0.6,0.8-0.8,1.1c-0.8,1.1-3.5,0.1-3,2
			c0.6,2.1,2.8,1.3,4.4,0.9C111.2,132.5,115.2,132.1,119.2,131.7z M89.8,118.3c2.7-0.1,5.3-0.1,7-3.2c0.9-1.7,3.5-2,5-0.9
			c3.2,2.5,6.1,2.5,9.4,0.5c0.8-0.5,2.1-0.8,2.8,0.4c-0.1,0.8-0.8,0.9-1.3,1.3c-0.9,0.6-3,0.3-2.2,2.2c0.5,1.3,2.1,1.1,3.3,1
			c1.2,0,2.5-1.4,3.5-0.5c4.1,3.4,7.6,0.3,11.4-0.7c4.7-1.2,5.2-3.5,1.7-7.2c1.3-0.2,2.2-0.4,3-0.6c1.1-0.3,2.3,2.2,3,0.1
			c0.6-1.8-1.4-2.1-2.5-2.8c-0.9-0.6-1.9-1.1-2.9-1.3c-2.6-0.5-2.3-4.2-4.8-4.4c-4.5-0.2-2.7-2-1.4-4.2c0.3-0.6-1-0.6-1.7-0.8
			c-3.1-1.3-6.5-0.6-9.6-1.5c-3.6-1.1-5.5-1.5-3,3.1c0.7,1.2,0.2,2.4-0.8,3.3c-0.9,0.8-1.6,0.4-2.4-0.3c-5.9-5.2-13.4-4-20.3-5
			c-1.1-0.2-2.9,0.9-2.3,2.2c1.5,3.2-0.9,3.2-2.6,4c-2,0.9-3.5,2.1-4.4,4.2c2.1,1,5-1.5,5.3-0.1c1.6,6.1,4.6,2.1,7.9,1
			c-6,7.3,3.9,2.7,3.3,6.4c-3.3,0.9-7.1-0.6-11.7,1.6c2.4-2.9,1.2-4.5-0.6-4.8c-2.4-0.4-2.2,2.5-3.1,3.9c-1.2,1.9,1,2,2.2,2.5
			c1.9,0.8,3.6,0.9,5.3-0.3C87.9,116.1,89,116.7,89.8,118.3c-4.7,1.8-9.5,1.7-14.4,0.2c-1.9-0.6-3.4,0.3-4.1,2.1
			c-0.8,2,1.3,2.3,2.2,2.9c2,1.2,4.2,1.8,6.2,2.8c2.9,1.4,3.3,3,1.6,5.8c-0.2,0.3-0.3,1-0.1,1.2c1.7,1.7,3.9,2.3,6.3,2.3
			c1.1,0,2.4-0.3,2.6-1.5c0.3-2.3-2.4-2-3.2-3.4c-0.1-0.2,0.1-0.5,0.2-1c2.3,0.2,3.8,1.5,5.4,2.9c3.6,3.2,6.7,7.8,13.1,4.1
			c-6.1,0.8-7.6-4.7-11.8-7.1c1.2-0.6,1.7-0.9,2.2-1.2c2-1.4,5.2-2.7-0.2-4c-2.4-0.6-1-1.7,0.2-2.8c1.8-1.5,4.8-0.8,6.6-3.3
			c-4.4-1.4-7.6,0.4-10.8,2.1c-0.9,0.5-1.6,1.9-2.7,0.7C88.3,120,89,119.1,89.8,118.3z M187.2,59.7c-1.9-0.6-4.4-0.7-5.2-2.5
			c-2.1-4.7-6.1-4-10-4.1c-1.4,0-2.8,0.2-4-0.6c-2.5-1.6-4.7-0.8-6.8,0.6c-2.8,0.1-4.9-1.2-6.1-3.6c-2.4-4.9-7.5-4.8-11.5-6.9
			c-1.4-0.8-3,0.3-3.6,1.2c-0.5,0.7,0.9,2,1.5,3c2.2,4.1,6,3.4,9.5,3.8c1,0.1,3-1,2.8,1c-0.1,1.6-1.9,0.9-3.1,0.8
			c-0.5-0.1-1.1,0-2,0c1.8,1.4,2.5,2.7,1.2,4.2c-0.9,1.1-2.2,0.8-3.4,0.3c-2.9-1.1-5.7-2.2-8.7-3.2c-4.3-1.4-8.2-3.6-13.1-2.6
			c-4.7,1-7.6-2.1-9.8-5.9c-1.1-1.9-2.5-3.5-3.9-5.2c-0.9-1-1.9-2.4-3.5-1.4c-1.5,0.9-2.6,2.4-1.9,4.3c1,2.7,3.3,5.3-0.3,7.7
			c1.9,5.5-3.3,6-6,8.6c1.5,1.1,2.9,2.1,4.6,3.3c-1,0.9-2.5-0.7-3.4,0.9c0.8,2,4.9,3.6,1.6,6.7c-0.8,0.7-3,0.5-2.1,2.2
			c0.8,1.5,2.7,0.7,3.8,0.1c4.9-2.8,8.5,1,13,1.5c-0.9,1.6-2.6,0.1-3,1.5c-0.3,1.2,1.2,1.2,1.6,1.9c1,1.8,5,2.9,2.7,5.4
			c-2.4,2.5-6.3,4.5-9.5,1.1c-4.2-4.5-10.1-5.7-14.9-8.8c-2.3-1.5-4.2-0.8-5.4,1.5c-1.1,2.1-1.8,4.2-2.2,6.5c-0.4,2.2-1,4.6-3.7,5.4
			c-2,0.7-3.8,1.7-3.3,4.3c0.2,1,0,2.6,1.1,2.8c2.2,0.4,3.6-1,4.9-2.7c0.7-1,2.6-2.8,3.1-1.1c1.1,4.1,2.2,2.3,3.7,0.6
			c0.4-0.5,1-1.1,1.3-0.1c0.9,2.9,2.1,1.3,3.2,0.3c1.5-1.2,2-0.8,3.1,0.7c1.8,2.5,5.3-0.1,5.3-0.6c0-3.8,2.6-2.9,4.8-3.6
			c3.3-1,4.4-0.8,2.9,2.8c3.5,0.1,5.7-2.5,8.4-3.4c0.8,1.3-0.7,2.3,0.4,3.5c1.6-1.1,3.3-2.2,4.9-3.3c1-0.7,1.8-1.7,0.5-2.6
			c-2.9-2-1.2-4.2-0.6-6.5c2.2,6.4,8.1,11.1,8.5,18.4c0,0.9,0.6,1.8,1,2.6c5.3,9.8,11.4,19.2,13.5,30.3c1.1,5.7,5,7,9.8,8.9
			c-1.8-5-1.8-10-4.9-13.6c-1.9-2.1-2.7-4.4-3.2-6.9c-0.8-3.9-1.3-7.8-7-6.8c2.8-4.3,2.3-7.5-1.9-11c-1.7-1.5-2.1-3-2.4-5.1
			c-0.9-6.2-1.7-12.5-6-17.6c-3-3.6-3.9-8.1-2.7-11.8c4.6,8.1,9.5,15.5,18,20.3c-6.1,0.4-2.6,2.5-1.1,4c1.2,1.3,3.3,1.4,4.3,3.3
			c3.4,6,7.2,11.8,13.9,14.8c0.9,0.4,2.6,1.7,1.7,2.1c-3.7,1.9,0,2.4,0.5,3.2c0.8,1.3,2.7,2.3,2.8,3.6c0.6,6.6,6.7,9.3,9.7,14.2
			c0.6,1,1.8,2,3.1,1.1c1.2-0.9,1.1-2.5,0.2-3.3c-4.2-4-4.8-10-7.9-14.3c-6.6-9.4-12.2-19.5-20.6-27.7l-0.1,0.1
			c3.9-0.1,7.7-0.5,11.5-1.7c1.5-0.5,3.6-0.8,5.3,0.7c0.5,0.5,1.9,0.5,2.6,0.1c3.5-1.7,6.7-3.5,11.1-3.8c3.8-0.2,8.2-3,11.4-0.5
			c4.5,3.4,6.9-3.2,10.6-1.2c0.7,0.4,1.4,0.8,2.1,0.9c2.5,0.6,5,1.6,7.7,1.1c1.3-0.3,3.3,0.1,3.6-1.5c0.3-1.9-2.1-1.4-2.9-2.3
			c-1.9-2.2-5.2,0-7-2.6c-6.8-9.6-14.6-18.3-26.1-22.7C184.5,57.2,186.4,58.2,187.2,59.7z M107.1,151.9c-7.2-2.5-14.3-5.2-18.8-11.8
			c-0.8-1.1-1.6-1-2.8-1.1c-4.4-0.3-7.8-4.3-7.7-8.9c0-0.9-0.1-1.5-0.8-2c-0.9-0.6-1.8-0.3-2.5,0.4c-0.5,0.5-1.2,1-0.6,1.9
			c3.2,4.7,1,6.3-3.7,6.6c-0.2,0-0.4,0.6-0.8,1.2c1.8,0.2,3.4,0.5,5.5,0.7c-3,1.2-3,1.2-4.6,3.1c9.2,5.8,18.1,12.3,29.7,14
			c-2.6,2.6-5.5,3-8.1,3.8c-1.5,0.5-3.5,0.9-2.8-2.3c0.7-2.9-1.7-4.4-3.8-3.5c-4.1,1.7-8.7,2.6-12,5.9c-1.1,1.1-2.4,2.3-1.3,4
			c0.9,1.6,2.3,2.6,4.2,1.8c1.6-0.7,2.9-1.2,2,1.5c-0.3,0.8,0.2,1,0.9,1.2c4.1,1,8.4,3.4,11.8-1.5c0.4-0.6,1.6-1.3,2.3-0.2
			c1.3,1.8,1.4,2.2,2.8,1.4c7.1-4,14.3-2.7,21.7-1.2c1.3,0.3,2.8,0,4.1-0.4c2.6-0.9,5-1.2,7.7-0.6c2.3,0.6,4.2-0.1,4.8-2.8
			c-2.4,1.3-4.6,3.2-7-0.3c2-0.8,4-1.6,6-2.5c0.8-0.3,1.2-1,0.7-1.9c-0.4-0.6-1-0.8-1.6-0.4c-5.7,3.7-10.7,0-15.9-1.6
			c-2.1-0.7-3.4-1.1-5.3,0.8c-2.8,3-5.1,2.4-6.9-0.9C102.8,153.5,107.4,153.9,107.1,151.9z M178,204.5c-9.7-9.2-16.4-19.1-15.9-32.5
			c0-1.1-0.3-2.2-0.6-3.2c-1.5-5.2-3.1-10.3-4.7-15.5c-0.4-1.3-1.4-2.6-3.1-2.3c-1.8,0.4-0.9,1.9-0.9,3.1c0.2,5.1,1.4,9.8,3.9,14.3
			c1.3,2.4-1.6,4.9-0.2,7.5c-0.1,0-0.3,0.1-0.4,0.1c-2.3,1.1-2.3,1.1-0.7,3.4c1.9,2.7,1.9,2.8-0.6,4.4c-0.9,0.6-0.7,1.3-0.4,2
			c1.5,3.5,2.5,7.5,7,8.5c4.5,1,7.5,4,10.3,7.3C173.1,203.3,174.5,205.3,178,204.5z M158.9,278.7c-3.1,2.8-5.9,3.8-10,3.7
			c-5.7-0.1-10.5,5.9-17.1,3.9c-0.2-0.1-0.5,0.3-0.8,0.4c-0.9,0.4-1.4,2.4-2.5,1.5c-3.5-2.8-7.5,4.3-10.7-0.8c-0.1-0.1-1,0-1.3,0.2
			c-1.9,1.3-3.9,2.4-6.2,3c-1.5,0.4-1.7,1.6-1.2,2.9c0.7,1.7,1.9,1.5,3,0.7c2.3-1.7,4.4-1.7,7.3-1.3c2.8,0.3,5.9,1.2,8.5,0.6
			c9.4-2.2,19-3.9,28.1-7.5C159.5,284.6,159.4,282.3,158.9,278.7z M233.1,176.5c-3,3.1-5.8,5.4-9.8,3.4c-0.2-0.1-0.6,0.1-0.9,0.2
			c-5.2,0.8-9.2,6.5-15.4,3.8c-1.6-0.7-2.8,3.1-4.1,2.1c-3.6-2.6-7.6,4.3-10.7-0.8c-0.1-0.2-1,0-1.3,0.2c-2,1.5-4.3,2.4-6.6,3.2
			c-1.3,0.4-1.2,1.6-0.8,2.7c0.5,1.3,1.6,1.7,2.5,1c2.7-2.2,5.4-1.6,8.6-1.5c2.6,0.1,5.2,1.2,7.6,0.6c9.4-2.3,19-3.9,28.1-7.6
			C233.7,182.5,233.8,180.2,233.1,176.5z M210.1,222.3c0.3,3.3,1.4,6.1,2.6,8.9c1,2.3,3.2,2.7,5.4,2.7c1.4,0,2.3-1.1,2.2-2.5
			c-0.5-8.4-1-16.8-1.5-25.2c-0.1-2-1.2-2.7-3.2-2.3c-1.4,0.3-3.5-0.3-2.2,2.4c0.4,1-0.3,1.4-1.2,1.1c-3-0.9-1.6,1.2-1.2,2
			c0.7,1.4,1.8,2.5,2.5,3.9c0.4,0.8,1,2.6-0.9,2.2c-2.9-0.5-2.1,0.9-1.5,2.3c1.1,2.2,2.2,4.4,3.4,6.6c0.7,1.4,1.8,2.8,0.4,4.5
			C212.6,227.1,213.1,223.7,210.1,222.3z M232.5,87.1c-0.3-3.9-1.8-7.1-5.1-9.2c-2.1-1.3-4-3.1-5.2-5.2c-1.7-3-4.1-5-6.9-6.5
			c-3.7-2-6-5.2-8.5-8.3c-3.1-3.8-6.9-6.7-12.4-7.4c1.3,3.2,3.1,5.1,6,5.9c0.7,0.2,2.4,0.8,1.5,1.6c-2.6,2.3-0.4,1.9,1,2.1
			c1.5,0.2,3,1,3.3,2.2c1.6,6,8.4,7,11.4,12.2c2.1,3.6,6.9,6.8,10.5,10.2C229.2,85.7,230.4,87.2,232.5,87.1z M105.8,244.1
			c-0.9,0.4-0.7,1-0.7,1.6c0,1.5-0.4,3.1-1.9,3.3c-1.8,0.1-2.3-1.3-2.4-3.1c-0.2-2.8-2.2-2.5-4-1.5c-2.7,1.6-5,2.2-6.7-1.3
			c-0.5-0.9-1.4-1.8-2.7-1.2c-0.8,0.4-2.1,0.8-1.9,1.7c0.6,2.7,1.1,6.1,4.3,6.3c3.7,0.3,7.1,2.3,10.8,2.1c3.2-0.2,6.2,2.6,9.4,0.4
			c1.6-1.1,3.1-1.2,4.8-0.6c1.3,0.4,2.8,0.8,3.7-0.8c0.5-0.8,0.8-1.8,0.2-2.6c-1-1.3-2.3-0.2-3.5-0.3
			C111.6,247.8,107.7,248.2,105.8,244.1z M179.6,140.9c-0.2,2-0.1,3-0.4,3.8c-0.3,1-0.6,2.3-2,2.2c-1.2-0.1-2.2-1-2.1-2.1
			c0.2-4.5-2.1-3.4-4.7-2.4c-1.3,0.5-2.9,2.3-4.2,0.8c-3.3-3.8-5.2-0.4-7.8,0.8c4.4,4.9,10.4,4.9,15.8,5.8c3.2,0.5,6.5,2.8,9.9,0.7
			c1.7-1.1,3.3-1.3,5.2-0.7c1.3,0.5,2.9,0.6,3.6-1.1c0.3-0.7,0.5-1.6,0.2-2.2c-0.8-1.5-2.2-0.5-3.3-0.6
			C186.1,145.6,182.1,146.2,179.6,140.9z M200.5,181.3c-3.8-0.2-5.2-6.7-10.2-3.7c-0.8,0.5-2.5,1.7-3-0.1c-0.4-1.4-0.3-2.7,1.9-3.8
			c4.2-2.2,8.3-4.8,13.2-7c-1.2-0.6-1.6-1-1.9-1c-3.1,0.1-6.1,2.5-9.4-0.1c-0.8-0.7-1.9,0.2-1,1.8c1.3,2.3,0.1,3.3-2.2,3.8
			c-2.4,0.5-7.4-2.4-5.8,4.1c0.1,0.2-1.1,0.6-1.4,1.1c-0.8,1.1-3.7,0.9-2.6,3.1c1,1.9,3.1,2.5,5.3,1.9c1.6-0.4,3.3-1.5,4.9-0.3
			C192.2,183.9,196.3,181.7,200.5,181.3z M127.4,268.5c-3.6-1.5-7.3,2.3-10.8-0.9c-0.2-0.2-1.8-0.1-1.2,1.2c2.6,5.4-1.6,4.1-4.3,4.4
			c-1.5,0.2-4.8-0.8-3.7,2.2c0.8,2.2-0.4,2.1-1.2,3.1c-0.9,1-3.6,0.9-2.5,3.1c0.9,1.7,2.9,2.5,4.8,1.9c2.6-0.9,4.7-0.3,7.3,0.7
			c3,1.2,6.8,0.5,10.2-0.8c-3.7-0.4-5.3-6.6-10.1-3.7c-0.6,0.4-2.6,2.3-3.1-0.4c-0.2-1.4,0-2.4,1.8-3.4
			C119,273.6,123,270.9,127.4,268.5z M150.4,298c-12.2,0.1-23.1-0.7-34-1.8c-1.3-0.1-2.7-0.6-3.2,0.7c-0.6,1.5,1,2.4,2,2.6
			c3,0.8,5.9,2.7,9.3,1.6c0.8-0.2,2-1.3,2.1,0.3c0.1,2.8,1.8,1.9,3.2,1.7c1.1-0.1,2.5-0.1,3,0.8c1.5,3.3,2.2,1.2,3.3-0.3
			c1.3-1.8,3-5.3,4.9-3.7C145.2,303.5,146.8,299.8,150.4,298z M223.9,195.9c-11.4-0.1-22.3-0.7-33.1-1.9c-1.3-0.1-2.7-0.6-3.2,0.7
			c-0.6,1.5,1,2.4,2,2.6c3,0.8,5.9,2.8,9.3,1.6c0.7-0.2,1.3-0.8,2.1-0.2c4.4,3.6,7,3.6,11.4,0c1-0.8,2.3-2,3.2-1.1
			C219.4,201.7,221.1,197.6,223.9,195.9z M162.2,230.3c-0.4-2.5-4.9-2.8-3.7-4.7c2.8-4.5-1.6-6.3-2.7-9.3c-0.4-1.2-1.9-2-1.8-3.6
			c0.3-4.1-2.2-5.8-5.7-6.4c-1.1-0.2-2.5-1.4-3.3,0.2c-0.6,1.3-0.1,2.7,1,3.8c1.7,1.8,2.6,4.1,3.9,6
			C153.3,221.3,155,228.2,162.2,230.3z M184.4,91.7c-1.1,3-3.4,5.5-1.5,8.6c0.8,1.2,2.3,1.7,2.7,3.5c0.7,3.3,3,5.7,5.8,7.5
			c1.2,0.7,2.5,2.7,4,1.1c1.1-1.2-0.2-2.5-0.9-3.7c-1.5-2.3-3.7-4.6-4-7.1C190,97.4,188.4,94.3,184.4,91.7z M115.6,259.7
			c-2.2-0.2-3.8-0.6-5.2-0.4c-3.7,0.5-7.5-0.8-11.3,1.2c-2.8,1.5-1.6,3.1-1.1,4.8c0.7,2.8,2.3,0.7,3.6,0.6c1.8-0.2,3.2-2,5.2-1.2
			C111.4,266.4,113.6,263.7,115.6,259.7z M190,157.6c-2.4-0.2-4.1-0.8-5.7-0.5c-3.6,0.7-7.4-1.1-10.8,1.2c-1.5,1-2.7,1.5-1.5,3.8
			c1.1,2,2,2.2,3.9,1.6c1.7-0.5,3.2-2,5.2-1.3C185.7,164.2,187.9,161.5,190,157.6z M86.7,266.7c-2.3-2.5,0.4-5.7-1.4-8.3
			c-3.4-5.1-6.1-10.5-7.3-16.6c-0.3-1.7-1-3.3-1.6-4.8c-0.4-0.9-1.1-1.7-2.1-1.1c-0.9,0.5-0.3,1.3-0.1,2c1,6.4,3.7,12.4,6.2,18.2
			C82,259.7,83,264,86.7,266.7z M104.1,218.9c-3.1,5.2-2.9,9.8,1.5,12.3c3.2,1.8,3,3.1,0.6,5.1c2.2,1,3.8,0.2,5.3-0.5
			c1.4-0.6,2.8-2,1.5-3.1C108.6,229.1,108.1,223.1,104.1,218.9z M270.6,247.9c-5.4,3.4-5.6,9.8-8.9,14.4c-2,2.9-2.5,7.4-5,9.2
			c-2.8,2-3.7,4.7-5.3,7.1c-0.6,1-0.9,2.1,0.8,2.4c1.1,0.2,2.1,0.9,2.9-0.9c3.2-6.9,7-13.5,10-20.5
			C266.8,255.7,269.4,252.1,270.6,247.9z"/>
		<path class="st0" d="M75.7,215.7c-2.7-2.5-5.5-5-8.1-7.6c-2.1-2-1.3-3.6,1.2-3.5c2.3,0,5.5-2.7,6.9,1.8c0.3,1.1,1.6,0,2.4-0.4
			c1.2-0.7,2.3-1.8,3.7-0.5c1.3,1.2,3.1,1.1,3.4-0.3c0.5-1.8-0.9-3.2-2.9-3.4c-4.5-0.3-9-0.5-13.4,0c-1,0.1-2.1,0.7-3.1,0
			c-0.6-1.4,2.5-1.3,1.3-2.8c-0.8-1-2-1.7-3.3-1c-2.1,1-3-1.2-4.5-1.6c-1.6-0.4-3.1-0.3-4.4,0.6c-1.1,0.7-2.6,1.5-3.4,0.5
			c-3.3-3.7-8.4-3.6-12.1-6.4c-2.9-2.2-5.2-1.4-6.6,1.9c-0.8,2-1.7,4-2.1,6.1c-0.9,4.2-4.7,4.6-7.6,5.9c-1.6,0.7-2-1.1-2.1-2.3
			c-0.2-1.7-1.2-3,0.3-5.3c4.2-6.1,10-10.1,15.6-14.5c1.1-0.9,1.6-1.8,1.2-3.2c-2.5-8.7-0.8-17.9-3.6-26.5c-2.2-6.9-1-13.9-1.7-20.8
			c-0.5-4.7-2.1-9.7-1-14.1c0.6-2.5-1.8-6.1,2.1-7.8c0.7-0.3,0.7-2.2,0.1-3.5c-0.5-1-2.8-2.1,0-3.1c1-0.4,2.6-2,3-0.5
			c0.3,1.3,2,2.6,0.5,4.6c-2.6,3.5-2.3,4.1,1.1,6.5c1.2,0.9,0.6,1.6,0,2.2c-3.1,3.5-2.4,6.2,1.3,8.7c1,0.7,1.9,1.4,1.3,3.4
			c-0.8,2.4-0.2,4.8,3.3,5.5c3.2,0.6,2.6,4.4,4.6,6.5c-2.8,1-4.6-0.7-6.6-1.1c-2-0.4-3.4,0-4.4,1.5c-1,1.6,0.7,2.3,1.6,3.3
			c1.3,1.4,2.6,2.5,4.3,3.3c1.9,1,3.9,2.2,2,5c-0.8,1.2-0.6,2.4,1.1,2.8c1.6,0.5,2,1.7,1.1,2.8c-0.9,1.3-1.9,0.2-2.7-0.5
			c-1-1-1.8-1.6-3.1-0.5c-1.6,1.4-0.5,2,0.3,3.3c0.9,1.4,0.9,3.1,2.6,4.3c1.6,1.2-0.1,2.6-1.5,2.9c-4.2,0.7-2.8,2.1-1.3,4.7
			c1.3,2.2,3.7,2.8,5,5.1c1.7,2.8,1.3,4.3-0.7,6.3c-1.1,1.1-2,2.4-2.1,3.9c4.7,2.2,9.4,2.8,14.6,0.3c-0.3,1.2-0.3,1.6-0.4,1.7
			c-1,1.1-3.8,0.6-3.2,2.5c0.5,1.9,2.9,1.6,4.4,0.9c3.1-1.4,5.3,2.9,9,0.8c2-1.1,4.7-2,7.2-2.8c1.2-0.4,1.8-1.1,1.6-2.4
			c-0.2-1.6-1.1-2.5-2.7-2.8c-1.3-0.2-2.5-0.8-2.1,1.5c0.2,1.3-1,0.9-1.5,0.4c-1-1-3.2-1.3-3-3.1c0.1-1.3,1.4-0.9,2.3-0.7
			c2.7,0.7,5.9-0.7,8.3,1.8c0.6,0.6,1.8,0.1,2.6-0.3c3.7-1.8,7.7-2,11.8-1.9c0,0-0.1-0.1-0.1-0.1c-1.3,1.4-3.1,2.1-4.8,2.8
			c-2.9,1.2-4,5.2-1.1,8c-5.1-0.9-9.6-2.5-13.7,1.3c2.7,1.9,5.1-0.4,7.3,0.1c2,0.5,5.7-1.7,5.3,3.2c0,0.4,1,1.3,1.7,1.4
			c3.3,0.4,5.1,1.4,2.8,4.9c-0.2,0.3,0.1,0.9,0.3,1.3c2,3.6-0.5,2.4-2.5,2.8c-4.7,1-10.1,0.9-13,5.9L75.7,215.7z"/>
		<path class="st0" d="M241.2,19.4c2.1-1.3,3.7-0.5,5.2,0.7c5.6,4.4,11.6,8.5,16.6,13.6c3.5,3.5,8.3,6,10.6,9.8
			c4.3,7.1,11.6,11.1,15.9,18.1c1.9,3,1.6,6.5,3.7,9.4c3,4.1,6.4,7.9,8.5,12.7c1.1,2.4,2.6,4.7,2.4,7.4c-0.5,6.2,3.5,11.4,3.8,17.6
			c0.1,2.2,2.2,4.8,3.3,7.3c3.7,8.5,5.2,17.6,6.8,26.4c1.1,6.6,2.6,13.7,1.5,20.8c-0.7,4.2,1.6,8.7,0,13.1
			c-1.6,4.4,0.3,9.4-2.5,13.7c-0.4,0.6-0.3,1.7-1.3,1.6c-1.2-0.2-1.2-1.3-1.1-2.2c0.1-2.9,0.3-5.8,0.5-8.7c0-0.6,0.3-1.2,0.2-1.8
			c-1.7-11.4-1-23.1-3.6-34.4c-0.7-3.3-0.7-6.7-1.1-10.1c-1.7-12.8-6.9-24.7-10.2-37c-1.7-6.4-3.2-12.8-7.6-18.1c-1.4-1.7-3-3-5-4
			c-2.7-1.4-5.1-3.2-6.5-6.2c-0.7-1.6-2-3.2-3.5-4.2c-7.1-4.8-10-12.7-14.1-19.6c-0.8-1.4-5.3-3.2-1-6c0.7-0.5-1-1.5-1.6-2.3
			c-3.1-3.9-7.7-5.5-11.7-8C245.7,26.3,243.3,23.1,241.2,19.4z"/>
		<path class="st0" d="M107.1,313.1c1.6,3,3.8,5.1,7.3,5.8c1.1,0.2,2.4,1,2.5,2.5c0,0.7-0.5,1.2-1.1,1.2c-1.2-0.1-2.4,0.9-3.6-1
			c-2-3.2-6.3-2.3-9.4-3.9c-6.8-3.5-14.2-5.8-20.2-10.9c-0.5-0.5-1.3-0.7-2.3-1.3c-0.5,2.9,2.6,3.4,3,6c-4.7-3-9.6-4.8-11.8-10.2
			c-2.3-5.7-7.1-9.9-10-15.2c-3.2-5.9-5.4-12.3-6.5-19c-0.5-2.9-1.9-5.4-2.5-8.4c-1.3-6.7-2.6-13.5-6-19.6c-1.4-2.6-4.2-2.9-6.3-4.3
			c-1-0.7-2.6-1.3-1.6-2.7c0.9-1.3,2.5-0.5,3.3,0.3c7.1,7.2,16.9,12.5,16.7,24.9c0,2.5,1.2,6,4.6,6.9c3.2,0.9,3.8,2.2,1,4.5
			c3.9,1.8,9,1,10.1,6.7c-2.1,0.4-3.3-1.9-5.2-1.2c-1.1,0.4-2.6,0.2-3,1.6c-0.4,1.5,0.7,2.4,1.9,2.7c3.8,1.1,7.5,2.4,11.4,3.1
			c1.9,0.4,3,0.9,2.9,2.7c-0.1,2.2-1.9,0.7-2.8,1c-2.3,0.6-5.7-0.9-6.6,1.9c-0.6,2,3,1.8,4.4,3.3c2.7,2.7,5.9,5.1,9.7,5.9
			c6.3,1.4,9.3,6.7,14.2,11.6c-8.9-2-14.7-8-22.7-9.9c0.4,1.8,1.8,2.4,2.8,2.9c7,3.3,13.4,7.6,20.9,9.7c1.7,0.5,3.3,1.7,4.9,2.5
			C107.2,313.2,107.1,313.1,107.1,313.1z"/>
		<path class="st0" d="M25.1,80.7c-1.1,2.7,1,4.3,2.3,6.1c0.7,0.9,1.4,1.8,0.6,2.9c-0.6,0.9-1.6,0.5-2.6,0.5c-4.1-0.2-5.3,1.3-4,5
			c0.7,1.8,1.3,3.5-0.3,5.1c-0.1,0.1-0.2,0.3-0.2,0.4c2.2,6.2-4.2,7.8-6.2,11.8c-0.7,1.5-2.4,2.9-1.2,4.6c1.2,1.6,3,0.7,4.6,0.2
			c2.7-0.9,5.9-2,6.7,2.4c0.2,1.2,1.7,2.9-0.6,4c-1.7,0.9-2.9,0.2-4.2-0.8c-0.6-0.5-1.2-0.9-2.2-1.5c-0.9,2.2-0.5,5.4-3.9,5.6
			c-0.2,0-0.6,0.5-0.6,0.7c1.6,5.6-3.4,12.6,3.6,17c2.8,1.8,0.6,2.5-0.7,2.9c-4.7,1.7-5.7,4.6-2.7,9c4.3,6.2,4.3,6.2,9.9,9.4
			c-1.9,0.2-3.3,0.4-4.8,0.6c-1.4,0.2-2.8,1.3-2.3,2.3c1.5,3.2,0.6,5.3-1.6,7.7c-1.2,1.3,0,2.7,1.3,3.9c2.9,2.5,2.9,7.9,0.1,10.5
			c-0.8,0.8-1.5,1.5-1.3,2.8c0.9,6-1.9,11.1-3.6,16.5c-0.3,0.8-0.5,2.1-1.7,1.8c-1.1-0.3-1.8-1.8-1.2-2.6c4.4-6.2,2.1-12.9,1.7-19.4
			c-0.2-3.9,2.1-7,2.4-10.7c0.4-5.8-2.6-10.8-3-16.4c-0.1-2.2-0.3-4.3,0-6.6c0.8-8-0.4-16.2,0.5-24.3c0-0.4-0.6-0.9-1-1.4
			c-1.9,0.8,0.2,2.4-1.4,3.4c-1.9-1.7-2.9-4-2.5-6.7c1.4-8.2,4.6-15.9,7.4-23.6c1.7-4.7,2.9-9.6,4.6-14.3c1-2.7,2.3-5.3,3.6-7.9
			C22,79.4,23.8,81.2,25.1,80.7L25.1,80.7z"/>
		<path class="st0" d="M80.5,276.8c-3.2-4.9-7.1-8.6-10.5-12.7c-4.3-5.1-7.1-11.1-10.2-16.9c-1.3-2.4-2.8-4.4-4.7-6.2
			c-0.9-0.9-2.8-1.3-2.4-3.1c0.4-2.1,2.8-0.3,3.9-1.6c-3.2-1.8-7.4-2-8.8-6.2c-0.4-1.2-2-0.4-3-0.7c-0.9-0.3-2.1-0.9-1.3-1.8
			c3.8-4.2-1.1-3.6-2.6-4.2c-1.7-0.7-3.8-1.2-5.9-0.5c-0.1,1.6,2,1.4,2.2,2.7c0.3,1.3,0,2.5-0.8,3.5c-0.6,0.7-1.6,0.7-2.1,0.3
			c-1.7-1.4-3.3-3-5.5-4c-1.4-0.6,0-1.7,0.9-2.3c2-1.5,4.8-1,7.1-3.2c-4.6-1.9-8,0.4-11.5,1.9c-0.9,0.4-1.6,1.7-2.8,0.8
			c-0.3-0.2-0.5-0.8-0.4-1.2c0.3-1.3,1.6-1.2,2.6-1.6c2.4-0.7,4.9-0.8,6.5-3.6c0.9-1.5,3.6-1.7,5.4-0.1c1.4,1.2,3,1.7,4.6,2
			c2.2,0.4,4-0.8,5.3-2.2c1.6-1.7-0.8-2.2-1.3-3.3c-0.7-1.4-1.9-3,0.1-4c1.6-0.7,1.5,1.5,2.3,2.3c5.9,6.4,5.8,15.6,10.6,22.6
			c2.8,4.1,6,8,8.9,12.2c3.3,4.8,6.2,9.4,7.4,15.1c0.9,4.3,2,8.7,5.9,11.7C81.6,273.3,82.1,274.9,80.5,276.8z"/>
		<path class="st0" d="M289.3,117.2c2.6,4.5,3.3,9.2,5.2,13.4c5,11.4,8.1,23.3,10,35.5c0.3,1.8,1.3,3.5,1.8,5.2
			c0.3,1.4,0.1,3.1-1.6,3.3c-1.3,0.2-2.1-1.1-2.1-2.5c-0.3-8-4.6-14.8-6.7-22.3c-0.6-2.3-2.2-3.6-4.7-3.9c-1-0.1-2.9-0.9-1.6-1.7
			c3.7-2.4,0.4-6.2,2.3-8.8c0.2-0.3,0-1.2-0.2-1.3c-5.7-2.1-3.1-7.3-3.9-11c-0.7-2.8-1.6-5.9,1.7-9.1c1.8-1.8,1.7-6.9,0.5-10.6
			c-1.6-4.8-4.3-9.3-3.7-14.7c0-0.4-0.3-1-0.6-1.1c-5.1-2.2-5.9-7.2-7.4-11.6c-0.7-2.1-3-3.2-2.9-5.9c3.6,0.4,5.4,3.4,6.8,5.6
			c3,5,7.3,8.7,10.6,13.4c2.5,3.6,4.1,6.9,3.9,11.6c-0.1,3.4-1.3,7.3,0.9,11c1.9,3.3-1.3,5.5-3,7.5
			C293,120.5,292.2,117.3,289.3,117.2z"/>
		<path class="st0" d="M82.4,9c-3.1,3.3-0.2,5.1,1.2,7.1c1.6,2.4,2.3,4.3-1.7,4.5c-0.7,0-1.5,0.4-2.2,0.6c-6.1,2.1-6.1,2.2-2.2,7
			c-0.9,1.8-3.8-0.7-4.2,1.7c-0.3,2.1,1.5,3,3,4.2c2.5,1.8,3.3,5,1.8,7.1c-3.2,4.7-0.8,6.9,2.9,9c0.2,0.1,0.3,0.5,0.7,1.2
			c-4.5,0.5-6.3,4.7-10.1,6.6c-3.1,1.5-4,8-1.4,9.8c2.7,1.8,1.6,4.4,2.8,6.3c0.2,0.2,0.3,0.7,0.1,0.9c-5.2,5.9-2.7,14.2-6.7,20.5
			c-0.5,0.8-0.5,2.7-1.8,2.2c-1.4-0.5-1.3-1.8-0.7-3.5c2-5,3.5-9.9,1.1-15.6c-0.8-1.8-0.9-5.4,0.2-8c2.5-5.8,1.9-12.3,3.8-18.3
			c1.6-5,2.1-10.7,1.2-16.1C69.4,30.8,71.8,26,73.1,21c0.3-1,1.3-1.9,0.4-2.9c-1-1.1-2.4-0.9-3.4-0.3c-1.8,1.2-3.3,1-4.2-1
			c-1-2.2,1.3-2,2.2-2.7C72.3,11.3,77.4,11.1,82.4,9z"/>
		<path class="st0" d="M61.5,293.3c-7.3-3-12.9-6.5-17.4-12c-7.2-8.7-13.4-18.2-19.9-27.4c-1.8-2.6-2.2-6-4.3-8.6
			c-1.6-1.9-3.1-3.9-5.6-4.6c-3.7-1.2-4.5-4-4.1-7.3c0.3-2.1,0.6-4.1-0.4-6.9c2.4,1.4,6.2,0.2,3.7,4.7c-0.9,1.7-0.1,3.7,2,5.1
			c1.9,1.2,3.7,3.1,5.5,4.1c8,4.5,10.1,14.2,17.6,19.1c1.2,0.8,3.6,2.5,1.5,5c-0.9,1,0,1.6,0.7,2.3c1.3,1.1,2.4,2.4,3.9,3.2
			c6.6,3.9,9.5,10.6,12.5,17C58.2,288.9,60.2,290,61.5,293.3z"/>
		<path class="st0" d="M59.8,57.3c2.3,2.7,1.9,5.3,1.5,6.9c-2.2,7.7,0.3,15.6-1.5,23.3c-0.8,3.8-1.4,7.6-1.9,11.4
			c-0.4,2.7-2.8,5.8,1,8.1c0.3,0.2,0.3,1.3,0,1.8c-2.8,4.4-0.4,9.3-1.2,13.9c-0.2,1.2,0.1,2.9-1.3,3c-1.8,0.1-2.1-1.7-2-3
			c0.9-10.4,0.1-20.9,1.3-31.4c0.9-7.9,1.4-16.1,1.9-24.2C57.9,64,59,61,59.8,57.3z"/>
		<path class="st0" d="M50.3,267.1c-7.7-7.5-13.9-15.5-19.3-24c-1.6-2.6-4.2-3.8-6.8-4.4c-4.8-1.2-3.9-4-2.9-7.4
			c0.7,0.3,1.3,0.4,1.4,0.7c1.4,5.4,6.4,4.7,10,6.6c3.5,1.9,7.9,5.2,8.4,10.3c0.2,1.7,1.2,2.2,2,3.3
			C46.2,256.6,50.5,260.5,50.3,267.1z"/>
		<path class="st0" d="M4.1,160.6c3,18.1,2.7,36-1.5,54.7c-2.3-2-2.9-3.8-2.3-6.1c0.4-1.3,1.2-2.7,1-4c-1.2-8.6,1.7-17,1.4-25.6
			C2.4,173.3,4.7,167,4.1,160.6z"/>
		<path class="st0" d="M298.5,129.8c0.8-3.2-0.3-7.3,1.2-11.1c0.4-1,0.3-2.9,2-2.7c1.2,0.1,2.1,1.4,2.3,2.7c0.6,4.7,1.7,9.4,2.8,14
			c0.4,1.8,0.4,3.6,1.1,5.4c0.6,1.3,1.6,3.2-0.6,3.9c-1.9,0.7-4.2,1.8-5.9-0.6C299.1,138.2,298,134.6,298.5,129.8z"/>
		<path class="st0" d="M17.4,251.9c4,5,7.3,10.1,9.6,15.8c1.9,4.7,5.7,8.3,8.8,12.3c1.6,2.1,5,4.7,1.9,6.9c-2.6,1.8-4.4-2.3-5.4-4.3
			c-4.6-9.2-12-16.9-14.7-27.2C17.4,254.3,16.7,253.4,17.4,251.9z"/>
		<path class="st0" d="M25.2,80.8c-1.8-4.3,2.6-7.4,2.2-11.5c-0.1-1.3,0.5-2.7,0.5-4.1c0-1.8-1.5-4.3,2.3-3.8c0.2,0,0.5-0.4,0.6-0.7
			c0.9-5.7,6.8-7.5,9.2-12.1c2,1.5,1.4,3.5,0.4,4.2c-5.6,3.8-5.4,10.1-7.3,15.5c-1.1,3.1-2.8,6-5.3,8.2C26.4,77.7,25.4,79,25.2,80.8
			C25.1,80.7,25.2,80.8,25.2,80.8z"/>
		<path class="st0" d="M45.3,98.1c-0.4,2.6-1.3,4.2-4.2,2.7c-0.7-0.3-1.4-0.5-2.2-0.5c-1.7-0.1-3.5,2.1-4.6,0.8
			c-1.6-1.7-1.5-4.6-1-6.6c1-4.4,0.9-9.4,5.2-12.8c1.4,3.9,3,7.3,1.6,11.6C38.8,97.4,41.4,99.4,45.3,98.1z"/>
		<path class="st0" d="M183,16.9c4.7,0.1,11.2,4.5,12.6,8.7c0.9,2.7,2.8,4.3,5.1,4.9c2.8,0.7,4,2.6,5.3,4.7c0.5,0.8,1,1.7,0.1,2.4
			c-0.8,0.7-1.7,0.3-2.6-0.2c-3-1.8-5.5-4.1-7.4-6.9c-2.7-4-6.3-6.7-11-7.9c-1.4-0.4-2.7-0.9-3.5-2.2c-0.6-1-2.4-1.5-1.8-2.9
			C180.6,16.2,182.3,17.4,183,16.9z"/>
		<path class="st0" d="M55.8,34.9c-0.1,4.8,0.1,9.1-1.3,13.4c-0.9,2.6-2.7,2-4.2,2.7c-1.5,0.7-2.7,0.4-3.2-1.4
			c-0.3-1.1-1-1.5-2.1-1.2c-0.9,0.3-2,0.8-2-0.7c0-1.2,0.7-3.1,1.8-2.7c3.4,1.3,2.9-1.8,3.3-2.9C49.3,38.4,51.9,36.3,55.8,34.9z"/>
		<path class="st0" d="M311.2,183.4c-0.6-5.3-1.2-10.6-1.8-15.8c-0.1-0.6-0.1-1.4-0.5-1.7c-6.9-4.9-1.4-11.1-1.7-16.6
			c0-0.7,0.5-1.6,1.5-1.3c1,0.2,1.5,1.2,1.6,2.1c0.4,2.7,0.9,5.5,1,8.2c0.4,8.4,0.1,16.8,0.1,25.2
			C311.4,183.4,311.3,183.4,311.2,183.4z"/>
		<path class="st0" d="M83.3,7.6c7.1-2,13.1-4.2,19.2-5.2c1.8-0.3,3.1,3.6,5.9,4.2C100.4,7.4,92.9,13.3,83.3,7.6z"/>
		<path class="st0" d="M166.5,18.1c-8.5,3.1-14.2-3-21-3.9c3.5-1.6,6.5-3.5,11-2.7C161.3,12.2,161.2,18,166.5,18.1z"/>
		<path class="st0" d="M155.2,88.7c-1.9-2.8-4.9-4.7-7.1-7.3c-1.8-2-3.9-4,1.3-5.1c2.9-0.6,4.9-1.9,5.8,1.9c0.2,0.8,0.6,1.7,1.5,1.1
			c2.2-1.3,4.2-2.4,6.7-0.4c0.5,0.4,2.1-0.2,2-1.3c-0.1-1.4-0.9-2.7-2.5-3c-2.2-0.5-5.4,0.1-6.4-2c-1.5-3.3-4.7-3.7-7-5.5
			c-1.2-0.9-2.4-1.5-3.6-0.2c-0.6,2,4.2,0.1,1.9,2.7c-1.8,2-3,5.9-7,4.5c-1.3-0.4-2-1.8-2.9-2.9c-2.8-3.3-4.6-8.5-10.7-5.9
			c-0.2,0.1-1-0.4-0.9-0.6c0.4-3.3-3.6-6.1-0.6-10.5c2.8,5.7,9.1,6.2,13.4,9.7c2.7,2.2,4.8,1.3,5.4-1.8c0.1-0.7,0.6-1.1,1.2-1.1
			c1.4-0.1,3.1-0.3,3.5,1.4c0.5,1.9,1.3,2.8,3.2,2.1c2-0.7,0.5-2.4,0.9-3.6c0.3-1-1.8-2.3,0.4-3c1.6-0.6,2,1.6,2.4,1.7
			c3.5,0.7,1.9,6.7,6.6,6c0.6-0.1,0.3,1,0.5,1.5c1.3,3.3,3.1,6.4,7,7.1c1.7,0.3,1.5,0.6,1.6,2.5c0.2,5-1.6,5.6-6.1,6.6
			C162.1,83.9,156.7,83.6,155.2,88.7C155.1,88.8,155.2,88.7,155.2,88.7z"/>
		<path class="st0" d="M161.1,53.1c2.7,0.8,4.8,1.9,7,4.1c5,5.1,10.2,10.1,16.4,13.9c0.9,0.5,1.8,1.7,2.8,0.7c1.1-0.9,0.2-2-0.3-2.9
			c-1.7-3.1-4.8-5.1-7.7-6.4c-3.2-1.4-3.9-3.2-3.9-6.2c2.1,0.1,3.6,0.1,4.5,2.8c0.9,2.9,5.7,3,7.3,0.6c3.9,2.4,7.8,4.8,9.2,9.7
			c0.2,0.7,0.7,1.4,1.3,1.8c3.3,2.5,6.7,4.8,10,7.3c-0.1,0.3-0.4,0.7-0.4,0.7c-3.7-1.5-7.2-2.1-10.7,0.8c-0.9,0.8-2.7,0.1-3.9-0.7
			c-1.6-1.1-3.3-1-4.8,0c-3.5,2.5-6.1,0.6-7.7-2.1c-3.2-5.3-8.7-9.1-10.3-15.6c-0.5-2.2-3.4-2.4-5.3-3.4
			C162.5,56.8,160.9,55.6,161.1,53.1z"/>
	</g>
</g>
</svg>
